<svg id="visual" viewBox="0 0 960 540" width="960" height="540" xmlns="http://www.w3.org/2000/svg" xmlns:xlink="http://www.w3.org/1999/xlink" version="1.1"><rect x="0" y="0" width="960" height="540" fill="#FFFFFF"></rect><defs><linearGradient id="grad1_0" x1="43.8%" y1="0%" x2="100%" y2="100%"><stop offset="14.444444444444446%" stop-color="#cccccc" stop-opacity="1"></stop><stop offset="85.55555555555554%" stop-color="#cccccc" stop-opacity="1"></stop></linearGradient></defs><defs><linearGradient id="grad1_1" x1="43.8%" y1="0%" x2="100%" y2="100%"><stop offset="14.444444444444446%" stop-color="#cccccc" stop-opacity="1"></stop><stop offset="85.55555555555554%" stop-color="#dddddd" stop-opacity="1"></stop></linearGradient></defs><defs><linearGradient id="grad1_2" x1="43.8%" y1="0%" x2="100%" y2="100%"><stop offset="14.444444444444446%" stop-color="#eeeeee" stop-opacity="1"></stop><stop offset="85.55555555555554%" stop-color="#dddddd" stop-opacity="1"></stop></linearGradient></defs><defs><linearGradient id="grad1_3" x1="43.8%" y1="0%" x2="100%" y2="100%"><stop offset="14.444444444444446%" stop-color="#eeeeee" stop-opacity="1"></stop><stop offset="85.55555555555554%" stop-color="#ffffff" stop-opacity="1"></stop></linearGradient></defs><defs><linearGradient id="grad2_0" x1="0%" y1="0%" x2="56.3%" y2="100%"><stop offset="14.444444444444446%" stop-color="#cccccc" stop-opacity="1"></stop><stop offset="85.55555555555554%" stop-color="#cccccc" stop-opacity="1"></stop></linearGradient></defs><defs><linearGradient id="grad2_1" x1="0%" y1="0%" x2="56.3%" y2="100%"><stop offset="14.444444444444446%" stop-color="#dddddd" stop-opacity="1"></stop><stop offset="85.55555555555554%" stop-color="#cccccc" stop-opacity="1"></stop></linearGradient></defs><defs><linearGradient id="grad2_2" x1="0%" y1="0%" x2="56.3%" y2="100%"><stop offset="14.444444444444446%" stop-color="#dddddd" stop-opacity="1"></stop><stop offset="85.55555555555554%" stop-color="#eeeeee" stop-opacity="1"></stop></linearGradient></defs><defs><linearGradient id="grad2_3" x1="0%" y1="0%" x2="56.3%" y2="100%"><stop offset="14.444444444444446%" stop-color="#ffffff" stop-opacity="1"></stop><stop offset="85.55555555555554%" stop-color="#eeeeee" stop-opacity="1"></stop></linearGradient></defs><g transform="translate(960, 0)"><path d="M0 351C-60.3 340.6 -120.7 330.2 -174.5 302.2C-228.3 274.3 -275.6 228.8 -304 175.5C-332.3 122.2 -341.7 61.1 -351 0L0 0Z" fill="#f6f6f6"></path><path d="M0 263.3C-45.3 255.4 -90.5 247.6 -130.9 226.7C-171.2 205.7 -206.7 171.6 -228 131.6C-249.2 91.7 -256.2 45.8 -263.2 0L0 0Z" fill="#e5e5e5"></path><path d="M0 175.5C-30.2 170.3 -60.3 165.1 -87.2 151.1C-114.2 137.1 -137.8 114.4 -152 87.8C-166.2 61.1 -170.8 30.6 -175.5 0L0 0Z" fill="#d4d4d4"></path><path d="M0 87.8C-15.1 85.1 -30.2 82.5 -43.6 75.6C-57.1 68.6 -68.9 57.2 -76 43.9C-83.1 30.6 -85.4 15.3 -87.7 0L0 0Z" fill="#cccccc"></path></g><g transform="translate(0, 540)"><path d="M0 -351C59.5 -339.2 119.1 -327.4 173 -299.6C226.9 -271.9 275.2 -228.1 304 -175.5C332.7 -122.9 341.9 -61.4 351 0L0 0Z" fill="#f6f6f6"></path><path d="M0 -263.2C44.7 -254.4 89.3 -245.6 129.7 -224.7C170.2 -203.9 206.4 -171.1 228 -131.6C249.5 -92.2 256.4 -46.1 263.3 0L0 0Z" fill="#e5e5e5"></path><path d="M0 -175.5C29.8 -169.6 59.5 -163.7 86.5 -149.8C113.5 -135.9 137.6 -114.1 152 -87.8C166.4 -61.4 170.9 -30.7 175.5 0L0 0Z" fill="#d4d4d4"></path><path d="M0 -87.7C14.9 -84.8 29.8 -81.9 43.2 -74.9C56.7 -68 68.8 -57 76 -43.9C83.2 -30.7 85.5 -15.4 87.8 0L0 0Z" fill="#cccccc"></path></g></svg>